<?xml version="1.0" encoding="UTF-8"?>
<svg xmlns="http://www.w3.org/2000/svg" xmlns:xlink="http://www.w3.org/1999/xlink" width="48pt" height="48pt" viewBox="0 0 48 48" version="1.1">
<g id="surface2570">
<path style=" stroke:none;fill-rule:nonzero;fill:rgb(0%,0%,0%);fill-opacity:1;" d="M 39.484375 15.140625 C 38.441406 15.140625 37.492188 15.539062 36.777344 16.191406 C 36.132812 14.40625 34.417969 13.121094 32.410156 13.121094 C 31.023438 13.121094 29.777344 13.734375 28.925781 14.703125 C 28.15625 13.214844 26.597656 12.191406 24.808594 12.191406 C 23.089844 12.191406 21.589844 13.128906 20.789062 14.519531 C 20.214844 11.949219 19.476562 8.59375 19.003906 6.445312 C 18.652344 4.472656 16.890625 3 14.832031 3 C 14.578125 3 14.328125 3.023438 14.078125 3.066406 C 12.960938 3.265625 11.988281 3.890625 11.335938 4.824219 C 10.6875 5.753906 10.441406 6.886719 10.640625 8.003906 C 10.757812 8.539062 12.554688 16.875 13.765625 22.46875 C 12.296875 20.691406 10.398438 19.070312 8.003906 18.863281 C 7.765625 18.839844 7.535156 18.832031 7.316406 18.832031 C 5.308594 18.832031 3.75 19.6875 3.144531 21.117188 C 2.625 22.347656 2.933594 23.765625 3.957031 24.816406 C 6.351562 27.28125 7.375 29.375 8.363281 31.402344 C 9.042969 32.792969 9.746094 34.234375 10.851562 35.707031 C 12.101562 37.378906 13.796875 38.558594 15.15625 39.507812 C 15.859375 40 16.738281 40.613281 16.929688 40.925781 C 17.445312 41.742188 17.671875 43.191406 17.710938 43.636719 C 17.78125 44.40625 18.429688 45 19.203125 45 L 24.714844 45 C 27.277344 45 28.402344 43.972656 29.074219 43.355469 C 29.132812 43.300781 29.207031 43.234375 29.269531 43.179688 C 29.332031 43.230469 29.398438 43.289062 29.457031 43.339844 C 30.164062 43.960938 31.347656 45 34.171875 45 L 38.121094 45 C 38.949219 45 39.621094 44.328125 39.621094 43.5 L 39.617188 42.578125 C 39.609375 40.628906 39.597656 38.199219 40.132812 37.449219 C 41.144531 36.023438 43.5 31.980469 43.5 25.308594 L 43.5 19.15625 C 43.5 16.941406 41.699219 15.140625 39.484375 15.140625 Z M 39.484375 15.140625 "/>
<path style=" stroke:none;fill-rule:nonzero;fill:rgb(100%,100%,100%);fill-opacity:1;" d="M 21.671875 16.828125 C 21.671875 15.097656 23.074219 13.691406 24.808594 13.691406 C 26.539062 13.691406 27.941406 15.097656 27.941406 16.828125 L 27.941406 18.953125 C 27.941406 19.820312 29.277344 19.800781 29.277344 18.964844 L 29.277344 17.757812 C 29.277344 16.027344 30.679688 14.621094 32.410156 14.621094 C 34.144531 14.621094 35.546875 16.027344 35.546875 17.757812 L 35.546875 19.789062 C 35.546875 20.605469 36.964844 20.574219 36.964844 19.808594 L 36.964844 19.160156 C 36.964844 17.769531 38.089844 16.640625 39.480469 16.640625 C 40.871094 16.640625 42 17.765625 42 19.15625 L 42 25.308594 C 42 30.542969 40.410156 34.460938 38.90625 36.582031 C 37.996094 37.863281 38.121094 40.652344 38.121094 43.5 C 37.015625 43.5 35.277344 43.5 34.171875 43.5 C 30.550781 43.5 30.582031 41.613281 29.269531 41.613281 C 27.957031 41.613281 27.957031 43.5 24.714844 43.5 C 23.839844 43.5 19.203125 43.5 19.203125 43.5 C 19.203125 43.5 19.019531 41.433594 18.199219 40.125 C 17.382812 38.816406 14.011719 37.417969 12.050781 34.804688 C 9.472656 31.367188 9.265625 28.132812 5.03125 23.769531 C 3.601562 22.296875 4.601562 20.070312 7.871094 20.355469 C 11.4375 20.667969 13.976562 25.34375 15.25 27.253906 C 15.835938 28.128906 16.394531 27.480469 16.289062 27.015625 C 15.898438 25.265625 12.117188 7.738281 12.117188 7.738281 C 11.847656 6.242188 12.847656 4.8125 14.34375 4.542969 C 15.839844 4.273438 17.269531 5.273438 17.539062 6.769531 C 17.539062 6.769531 19.859375 17.324219 20.140625 18.4375 C 20.417969 19.550781 21.671875 19.378906 21.671875 18.394531 Z M 21.671875 16.828125 "/>
<path style=" stroke:none;fill-rule:nonzero;fill:rgb(0%,0%,0%);fill-opacity:1;" d="M 23.25 25.5 C 22.835938 25.5 22.5 25.835938 22.5 26.25 L 22.5 35.25 C 22.5 35.664062 22.835938 36 23.25 36 C 23.664062 36 24 35.664062 24 35.25 L 24 26.25 C 24 25.835938 23.664062 25.5 23.25 25.5 Z M 23.25 25.5 "/>
<path style=" stroke:none;fill-rule:nonzero;fill:rgb(0%,0%,0%);fill-opacity:1;" d="M 29.25 25.5 C 28.835938 25.5 28.5 25.835938 28.5 26.25 L 28.5 35.25 C 28.5 35.664062 28.835938 36 29.25 36 C 29.664062 36 30 35.664062 30 35.25 L 30 26.25 C 30 25.835938 29.664062 25.5 29.25 25.5 Z M 29.25 25.5 "/>
<path style=" stroke:none;fill-rule:nonzero;fill:rgb(0%,0%,0%);fill-opacity:1;" d="M 35.25 27 C 34.835938 27 34.5 27.335938 34.5 27.75 L 34.5 35.25 C 34.5 35.664062 34.835938 36 35.25 36 C 35.664062 36 36 35.664062 36 35.25 L 36 27.75 C 36 27.335938 35.664062 27 35.25 27 Z M 35.25 27 "/>
</g>
</svg>
